<svg width="20" height="20" viewBox="0 0 20 20" fill="none" xmlns="http://www.w3.org/2000/svg">
<path d="M20 10C20 15.5228 15.5228 20 10 20C4.47715 20 0 15.5228 0 10C0 4.47715 4.47715 0 10 0C15.5228 0 20 4.47715 20 10Z" fill="white"/>
<path fill-rule="evenodd" clip-rule="evenodd" d="M11.3658 6.73116C11.5604 6.53391 11.8755 6.53275 12.0727 6.72732L14.2169 8.8557C14.4124 9.04931 14.4124 9.36262 14.2169 9.55624L12.0727 11.6846C11.8755 11.8792 11.5604 11.878 11.3658 11.6808C11.1711 11.4835 11.1722 11.1685 11.3695 10.9738L12.5703 9.7812H6.11067C5.83652 9.7812 5.61475 9.55944 5.61475 9.28528C5.61475 9.01112 5.83652 8.78935 6.11067 8.78935H12.5676L11.3695 7.59939C11.1722 7.40466 11.1711 7.08955 11.3658 6.89232V6.89232C11.3658 6.89227 11.3659 6.89221 11.3659 6.89215C11.3659 6.89182 11.3658 6.89149 11.3658 6.73116Z" fill="#FF6452"/>
</svg> 